{
    "asset" : {
        "generator" : "Khronos glTF Blender I/O v0.9.29",
        "version" : "2.0"
    },
    "scene" : 0,
    "scenes" : [
        {
            "name" : "Scene",
            "nodes" : [
                0,
                1,
                2,
                3,
                4
            ]
        }
    ],
    "nodes" : [
        {
            "name" : "Front",
            "rotation" : [
                0.7071067690849304,
                0,
                0,
                0.7071067690849304
            ]
        },
        {
            "name" : "Top"
        },
        {
            "name" : "Right",
            "rotation" : [
                0.5,
                0.5,
                -0.5,
                0.4999999701976776
            ],
            "translation" : [
                0,
                0,
                -1.981383204460144
            ]
        },
        {
            "mesh" : 0,
            "name" : "Plastico negro",
            "rotation" : [
                0.7071067690849304,
                0,
                0,
                0.7071067690849304
            ],
            "scale" : [
                0.004600000102072954,
                0.004600000102072954,
                0.004600000102072954
            ]
        },
        {
            "name" : "Sun",
            "rotation" : [
                0.380179762840271,
                0.025644836947321892,
                0.25246140360832214,
                0.8894205689430237
            ],
            "translation" : [
                -55.964599609375,
                21.977264404296875,
                5.427809715270996
            ]
        }
    ],
    "materials" : [
        {
            "doubleSided" : true,
            "name" : "Material.001",
            "pbrMetallicRoughness" : {}
        },
        {
            "doubleSided" : true,
            "name" : "Material.002",
            "pbrMetallicRoughness" : {}
        },
        {
            "doubleSided" : true,
            "name" : "Material.003",
            "pbrMetallicRoughness" : {}
        },
        {
            "doubleSided" : true,
            "name" : "Material.004",
            "pbrMetallicRoughness" : {}
        }
    ],
    "meshes" : [
        {
            "name" : "Plane",
            "primitives" : [
                {
                    "attributes" : {
                        "POSITION" : 0,
                        "NORMAL" : 1,
                        "TEXCOORD_0" : 2
                    },
                    "indices" : 3,
                    "material" : 0
                },
                {
                    "attributes" : {
                        "POSITION" : 4,
                        "NORMAL" : 5,
                        "TEXCOORD_0" : 6
                    },
                    "indices" : 7,
                    "material" : 1
                },
                {
                    "attributes" : {
                        "POSITION" : 8,
                        "NORMAL" : 9,
                        "TEXCOORD_0" : 10
                    },
                    "indices" : 11,
                    "material" : 2
                },
                {
                    "attributes" : {
                        "POSITION" : 12,
                        "NORMAL" : 13,
                        "TEXCOORD_0" : 14
                    },
                    "indices" : 15,
                    "material" : 3
                }
            ]
        }
    ],
    "accessors" : [
        {
            "bufferView" : 0,
            "componentType" : 5126,
            "count" : 1020,
            "max" : [
                15.426656723022461,
                0.6059157252311707,
                7.070366859436035
            ],
            "min" : [
                0,
                -3.3825511932373047,
                -1.351602554321289
            ],
            "type" : "VEC3"
        },
        {
            "bufferView" : 1,
            "componentType" : 5126,
            "count" : 1020,
            "type" : "VEC3"
        },
        {
            "bufferView" : 2,
            "componentType" : 5126,
            "count" : 1020,
            "type" : "VEC2"
        },
        {
            "bufferView" : 3,
            "componentType" : 5123,
            "count" : 1524,
            "type" : "SCALAR"
        },
        {
            "bufferView" : 4,
            "componentType" : 5126,
            "count" : 60,
            "max" : [
                15.40259838104248,
                -3.0174665451049805,
                0.8415308594703674
            ],
            "min" : [
                14.622842788696289,
                -4.174941062927246,
                -0.5464993715286255
            ],
            "type" : "VEC3"
        },
        {
            "bufferView" : 5,
            "componentType" : 5126,
            "count" : 60,
            "type" : "VEC3"
        },
        {
            "bufferView" : 6,
            "componentType" : 5126,
            "count" : 60,
            "type" : "VEC2"
        },
        {
            "bufferView" : 7,
            "componentType" : 5123,
            "count" : 90,
            "type" : "SCALAR"
        },
        {
            "bufferView" : 8,
            "componentType" : 5126,
            "count" : 452,
            "max" : [
                15.471213340759277,
                -4.174941062927246,
                5.3020548820495605
            ],
            "min" : [
                14.278733253479004,
                -32.93023681640625,
                -0.7179001569747925
            ],
            "type" : "VEC3"
        },
        {
            "bufferView" : 9,
            "componentType" : 5126,
            "count" : 452,
            "type" : "VEC3"
        },
        {
            "bufferView" : 10,
            "componentType" : 5126,
            "count" : 452,
            "type" : "VEC2"
        },
        {
            "bufferView" : 11,
            "componentType" : 5123,
            "count" : 678,
            "type" : "SCALAR"
        },
        {
            "bufferView" : 12,
            "componentType" : 5126,
            "count" : 589,
            "max" : [
                13.604104995727539,
                -0.24182680249214172,
                6.624856948852539
            ],
            "min" : [
                2.0759363174438477,
                -1.1600109338760376,
                -0.7773181200027466
            ],
            "type" : "VEC3"
        },
        {
            "bufferView" : 13,
            "componentType" : 5126,
            "count" : 589,
            "type" : "VEC3"
        },
        {
            "bufferView" : 14,
            "componentType" : 5126,
            "count" : 589,
            "type" : "VEC2"
        },
        {
            "bufferView" : 15,
            "componentType" : 5123,
            "count" : 837,
            "type" : "SCALAR"
        }
    ],
    "bufferViews" : [
        {
            "buffer" : 0,
            "byteLength" : 12240,
            "byteOffset" : 0
        },
        {
            "buffer" : 0,
            "byteLength" : 12240,
            "byteOffset" : 12240
        },
        {
            "buffer" : 0,
            "byteLength" : 8160,
            "byteOffset" : 24480
        },
        {
            "buffer" : 0,
            "byteLength" : 3048,
            "byteOffset" : 32640
        },
        {
            "buffer" : 0,
            "byteLength" : 720,
            "byteOffset" : 35688
        },
        {
            "buffer" : 0,
            "byteLength" : 720,
            "byteOffset" : 36408
        },
        {
            "buffer" : 0,
            "byteLength" : 480,
            "byteOffset" : 37128
        },
        {
            "buffer" : 0,
            "byteLength" : 180,
            "byteOffset" : 37608
        },
        {
            "buffer" : 0,
            "byteLength" : 5424,
            "byteOffset" : 37788
        },
        {
            "buffer" : 0,
            "byteLength" : 5424,
            "byteOffset" : 43212
        },
        {
            "buffer" : 0,
            "byteLength" : 3616,
            "byteOffset" : 48636
        },
        {
            "buffer" : 0,
            "byteLength" : 1356,
            "byteOffset" : 52252
        },
        {
            "buffer" : 0,
            "byteLength" : 7068,
            "byteOffset" : 53608
        },
        {
            "buffer" : 0,
            "byteLength" : 7068,
            "byteOffset" : 60676
        },
        {
            "buffer" : 0,
            "byteLength" : 4712,
            "byteOffset" : 67744
        },
        {
            "buffer" : 0,
            "byteLength" : 1674,
            "byteOffset" : 72456
        }
    ],
    "buffers" : [
        {
            "byteLength" : 74132,
            "uri" : "bones.bin"
        }
    ]
}
