{
    "asset" : {
        "generator" : "Khronos glTF Blender I/O v0.9.29",
        "version" : "2.0"
    },
    "scene" : 0,
    "scenes" : [
        {
            "name" : "Scene",
            "nodes" : [
                0
            ]
        }
    ],
    "nodes" : [
        {
            "mesh" : 0,
            "name" : "PlasticoN",
            "rotation" : [
                0.7071067690849304,
                0,
                0,
                0.7071067690849304
            ],
            "scale" : [
                0.004600000102072954,
                0.004600000102072954,
                0.004600000102072954
            ]
        }
    ],
    "materials" : [
        {
            "doubleSided" : true,
            "name" : "PlasticoN",
            "pbrMetallicRoughness" : {}
        },
        {
            "doubleSided" : true,
            "name" : "PseudoMetal",
            "pbrMetallicRoughness" : {}
        },
        {
            "doubleSided" : true,
            "name" : "PlasticoRojo",
            "pbrMetallicRoughness" : {}
        },
        {
            "doubleSided" : true,
            "name" : "Cristal",
            "pbrMetallicRoughness" : {}
        }
    ],
    "meshes" : [
        {
            "name" : "Plane",
            "primitives" : [
                {
                    "attributes" : {
                        "POSITION" : 0,
                        "NORMAL" : 1,
                        "TEXCOORD_0" : 2
                    },
                    "indices" : 3,
                    "material" : 0
                },
                {
                    "attributes" : {
                        "POSITION" : 4,
                        "NORMAL" : 5,
                        "TEXCOORD_0" : 6
                    },
                    "indices" : 7,
                    "material" : 1
                },
                {
                    "attributes" : {
                        "POSITION" : 8,
                        "NORMAL" : 9,
                        "TEXCOORD_0" : 10
                    },
                    "indices" : 11,
                    "material" : 2
                },
                {
                    "attributes" : {
                        "POSITION" : 12,
                        "NORMAL" : 13,
                        "TEXCOORD_0" : 14
                    },
                    "indices" : 15,
                    "material" : 3
                }
            ]
        }
    ],
    "accessors" : [
        {
            "bufferView" : 0,
            "componentType" : 5126,
            "count" : 1022,
            "max" : [
                15.426656723022461,
                9.100570678710938,
                -0.8518170118331909
            ],
            "min" : [
                0,
                5.112104415893555,
                -9.273786544799805
            ],
            "type" : "VEC3"
        },
        {
            "bufferView" : 1,
            "componentType" : 5126,
            "count" : 1022,
            "type" : "VEC3"
        },
        {
            "bufferView" : 2,
            "componentType" : 5126,
            "count" : 1022,
            "type" : "VEC2"
        },
        {
            "bufferView" : 3,
            "componentType" : 5123,
            "count" : 1524,
            "type" : "SCALAR"
        },
        {
            "bufferView" : 4,
            "componentType" : 5126,
            "count" : 60,
            "max" : [
                15.40259838104248,
                5.477189064025879,
                -7.080653190612793
            ],
            "min" : [
                14.622842788696289,
                4.319714069366455,
                -8.468683242797852
            ],
            "type" : "VEC3"
        },
        {
            "bufferView" : 5,
            "componentType" : 5126,
            "count" : 60,
            "type" : "VEC3"
        },
        {
            "bufferView" : 6,
            "componentType" : 5126,
            "count" : 60,
            "type" : "VEC2"
        },
        {
            "bufferView" : 7,
            "componentType" : 5123,
            "count" : 90,
            "type" : "SCALAR"
        },
        {
            "bufferView" : 8,
            "componentType" : 5126,
            "count" : 452,
            "max" : [
                15.471213340759277,
                4.319714069366455,
                -2.620129108428955
            ],
            "min" : [
                14.278733253479004,
                -24.43558120727539,
                -8.640083312988281
            ],
            "type" : "VEC3"
        },
        {
            "bufferView" : 9,
            "componentType" : 5126,
            "count" : 452,
            "type" : "VEC3"
        },
        {
            "bufferView" : 10,
            "componentType" : 5126,
            "count" : 452,
            "type" : "VEC2"
        },
        {
            "bufferView" : 11,
            "componentType" : 5123,
            "count" : 678,
            "type" : "SCALAR"
        },
        {
            "bufferView" : 12,
            "componentType" : 5126,
            "count" : 589,
            "max" : [
                13.604104995727539,
                8.252828598022461,
                -1.297326922416687
            ],
            "min" : [
                2.0759363174438477,
                7.334644317626953,
                -8.699501991271973
            ],
            "type" : "VEC3"
        },
        {
            "bufferView" : 13,
            "componentType" : 5126,
            "count" : 589,
            "type" : "VEC3"
        },
        {
            "bufferView" : 14,
            "componentType" : 5126,
            "count" : 589,
            "type" : "VEC2"
        },
        {
            "bufferView" : 15,
            "componentType" : 5123,
            "count" : 837,
            "type" : "SCALAR"
        }
    ],
    "bufferViews" : [
        {
            "buffer" : 0,
            "byteLength" : 12264,
            "byteOffset" : 0
        },
        {
            "buffer" : 0,
            "byteLength" : 12264,
            "byteOffset" : 12264
        },
        {
            "buffer" : 0,
            "byteLength" : 8176,
            "byteOffset" : 24528
        },
        {
            "buffer" : 0,
            "byteLength" : 3048,
            "byteOffset" : 32704
        },
        {
            "buffer" : 0,
            "byteLength" : 720,
            "byteOffset" : 35752
        },
        {
            "buffer" : 0,
            "byteLength" : 720,
            "byteOffset" : 36472
        },
        {
            "buffer" : 0,
            "byteLength" : 480,
            "byteOffset" : 37192
        },
        {
            "buffer" : 0,
            "byteLength" : 180,
            "byteOffset" : 37672
        },
        {
            "buffer" : 0,
            "byteLength" : 5424,
            "byteOffset" : 37852
        },
        {
            "buffer" : 0,
            "byteLength" : 5424,
            "byteOffset" : 43276
        },
        {
            "buffer" : 0,
            "byteLength" : 3616,
            "byteOffset" : 48700
        },
        {
            "buffer" : 0,
            "byteLength" : 1356,
            "byteOffset" : 52316
        },
        {
            "buffer" : 0,
            "byteLength" : 7068,
            "byteOffset" : 53672
        },
        {
            "buffer" : 0,
            "byteLength" : 7068,
            "byteOffset" : 60740
        },
        {
            "buffer" : 0,
            "byteLength" : 4712,
            "byteOffset" : 67808
        },
        {
            "buffer" : 0,
            "byteLength" : 1674,
            "byteOffset" : 72520
        }
    ],
    "buffers" : [
        {
            "byteLength" : 74196,
            "uri" : "model.bin"
        }
    ]
}
